<svg width="32" height="32" viewBox="0 0 32 32" xmlns="http://www.w3.org/2000/svg">
  <defs>
    <linearGradient id="fireGradient" x1="0%" y1="100%" x2="0%" y2="0%">
      <stop offset="0%" style="stop-color:#d2001c;stop-opacity:1" />
      <stop offset="25%" style="stop-color:#ff6b35;stop-opacity:1" />
      <stop offset="75%" style="stop-color:#ff8500;stop-opacity:1" />
      <stop offset="100%" style="stop-color:#ffb700;stop-opacity:1" />
    </linearGradient>
  </defs>
  
  <!-- Background circle for better visibility -->
  <circle cx="16" cy="16" r="15" fill="#1a1a1a" stroke="#ff6b35" stroke-width="2"/>
  
  <!-- Main fire shape - center flame -->
  <path d="M16 4c-1.5 3.5-3 6.5-3 10 0 3.5 1.5 6 3 6s3-2.5 3-6c0-3.5-1.5-6.5-3-10z" fill="url(#fireGradient)"/>
  
  <!-- Left flame -->
  <path d="M12 10c-1 2.5-2 4.5-2 6.5 0 2.5 1 4 2 4s2-1.5 2-4c0-2-1-4-2-6.5z" fill="url(#fireGradient)" opacity="0.9"/>
  
  <!-- Right flame -->
  <path d="M20 12c-0.8 2-1.5 3.5-1.5 5.5 0 2.5 1 3.5 2 3.5s2-1 2-3.5c0-2-0.7-3.5-1.5-5.5z" fill="url(#fireGradient)" opacity="0.8"/>
  
  <!-- Base flames -->
  <path d="M11 18c-0.5 1.5-1 2.5-1 4 0 2 1 3 2.5 3s2.5-1 2.5-3c0-1.5-0.5-2.5-1-4-1-1.5-2-1.5-3 0z" fill="url(#fireGradient)" opacity="0.7"/>
  
  <path d="M18 19c-0.5 1-0.8 2-0.8 3 0 1.5 0.8 2.5 2 2.5s2-1 2-2.5c0-1-0.3-2-0.8-3-0.8-1-1.4-1.2-2.4 0z" fill="url(#fireGradient)" opacity="0.6"/>
</svg>
